<svg width="300" height="400" viewBox="0 0 300 400" fill="none" xmlns="http://www.w3.org/2000/svg">
<line x1="45.6111" y1="31" x2="45.6111" y2="380" stroke="#E0C9AE" stroke-width="11.2222"/>
<line x1="11" y1="25.3889" x2="289.311" y2="25.3889" stroke="#E0C9AE" stroke-width="11.2222"/>
<line x1="44.4802" y1="87.2572" x2="118.547" y2="26.6572" stroke="#E0C9AE" stroke-width="11.2222"/>
<line x1="236.006" y1="31" x2="236.006" y2="63.5444" stroke="black" stroke-width="1.12222"/>
<ellipse cx="234.5" cy="79.125" rx="17.5" ry="18.125" fill="#C4C4C4"/>
<circle cx="228.875" cy="74.125" r="3.125" fill="#5DB3E3"/>
<circle cx="241.375" cy="74.125" r="3.125" fill="#5DB3E3"/>
<ellipse cx="234.5" cy="155" rx="20.5" ry="58" fill="#C4C4C4"/>
<path d="M221.795 112C217.923 112.088 213.175 113.237 209.787 115.239C207.357 116.675 205.44 119.802 203.883 122.04C201.496 125.472 198.545 127.474 197.481 131.731C196.232 136.725 195.955 141.846 194.865 146.753C194.552 148.163 193.439 149.357 193.121 150.789C192.864 151.944 193.096 153.425 193.096 154.601" stroke="#C4C4C4" stroke-width="10" stroke-linecap="round" stroke-linejoin="round"/>
</svg>
