<svg width="300" height="400" viewBox="0 0 300 400" fill="none" xmlns="http://www.w3.org/2000/svg">
<line x1="45.6111" y1="31" x2="45.6111" y2="380" stroke="#E0C9AE" stroke-width="11.2222"/>
<line x1="11" y1="25.3889" x2="289.311" y2="25.3889" stroke="#E0C9AE" stroke-width="11.2222"/>
<line x1="44.4802" y1="87.2572" x2="118.547" y2="26.6572" stroke="#E0C9AE" stroke-width="11.2222"/>
<line x1="236.005" y1="31" x2="236.005" y2="63.5444" stroke="black" stroke-width="1.12222"/>
<ellipse cx="234.5" cy="79.125" rx="17.5" ry="18.125" fill="#C4C4C4"/>
<ellipse cx="234.5" cy="155" rx="20.5" ry="58" fill="#C4C4C4"/>
<path d="M221.795 112C217.923 112.088 213.175 113.237 209.787 115.239C207.357 116.675 205.44 119.802 203.883 122.04C201.496 125.472 198.545 127.474 197.481 131.731C196.232 136.725 195.955 141.846 194.865 146.753C194.552 148.163 193.439 149.357 193.121 150.789C192.864 151.944 193.096 153.425 193.096 154.601" stroke="#C4C4C4" stroke-width="10" stroke-linecap="round" stroke-linejoin="round"/>
<path d="M245 112C248.873 112.088 253.62 113.237 257.008 115.239C259.439 116.675 261.355 119.802 262.912 122.04C265.3 125.472 268.251 127.474 269.315 131.731C270.563 136.725 270.84 141.846 271.931 146.753C272.244 148.163 273.356 149.357 273.674 150.789C273.931 151.944 273.699 153.425 273.699 154.601" stroke="#C4C4C4" stroke-width="10" stroke-linecap="round" stroke-linejoin="round"/>
<path d="M227.186 205C224.364 211.034 223.701 217.24 222.41 223.986C221.368 229.43 220.177 234.492 220.292 240.235C220.416 246.386 220.267 252.169 219.609 258.195C218.764 265.929 219.08 273.742 222.285 281" stroke="#C4C4C4" stroke-width="10" stroke-linecap="round" stroke-linejoin="round"/>
<path d="M241.311 210C244.819 215.435 246.225 221.211 248.314 227.442C249.999 232.471 251.786 237.128 252.371 242.533C252.997 248.322 253.846 253.744 255.226 259.351C256.997 266.547 257.635 273.914 255.367 281" stroke="#C4C4C4" stroke-width="10" stroke-linecap="round" stroke-linejoin="round"/>
<line x1="224.4" y1="68.7" x2="230.4" y2="76.7" stroke="#FF0000"/>
<line x1="231.307" y1="69.3947" x2="222.307" y2="76.3947" stroke="#FF0000"/>
<line x1="238.4" y1="68.7" x2="244.4" y2="76.7" stroke="#FF0000"/>
<line x1="245.307" y1="69.3947" x2="236.307" y2="76.3947" stroke="#FF0000"/>
</svg>
